<svg viewBox="0 0 937 869" fill="none" xmlns="http://www.w3.org/2000/svg">
<path d="M451.5 273V392.5" stroke="black"/>
<path d="M13.2 676.7V491.9C13.2 478.567 17.7333 468.167 26.8 460.7C35.8667 453.233 48.2667 449.5 64 449.5C79.7333 449.5 91.8667 452.967 100.4 459.9C109.2 466.833 113.6 476.967 113.6 490.3V675.1C113.6 688.433 108.933 698.833 99.6 706.3C90.5333 713.767 78.1333 717.5 62.4 717.5C46.6667 717.5 34.5333 714.033 26 707.1C17.4667 700.167 13.2 690.033 13.2 676.7ZM44.8 491.9V675.1C44.8 679.9 46.4 683.767 49.6 686.7C53.0667 689.633 57.6 691.1 63.2 691.1C68.8 691.1 73.3333 689.767 76.8 687.1C80.2667 684.167 82 680.167 82 675.1V491.9C82 486.833 80.2667 482.967 76.8 480.3C73.3333 477.367 68.8 475.9 63.2 475.9C57.6 475.9 53.0667 477.367 49.6 480.3C46.4 482.967 44.8 486.833 44.8 491.9ZM209.753 617.1C202.553 617.1 195.353 617.767 188.153 619.1C186.02 611.633 184.953 604.3 184.953 597.1C184.953 592.833 186.82 590.7 190.553 590.7H241.353V679.5C241.353 685.1 242.42 689.1 244.553 691.5C246.686 693.9 250.553 695.1 256.153 695.1C256.42 702.033 254.553 707.5 250.553 711.5C246.82 715.5 241.353 717.5 234.153 717.5C222.953 717.5 215.753 713.367 212.553 705.1C205.086 713.367 194.82 717.5 181.753 717.5C154.553 717.5 140.953 704.7 140.953 679.1V491.9C140.953 478.567 145.486 468.167 154.553 460.7C163.62 453.233 175.753 449.5 190.953 449.5C206.42 449.5 218.686 452.967 227.753 459.9C236.82 466.567 241.353 475.367 241.353 486.3V531.9C241.353 536.7 237.886 540.033 230.953 541.9C227.22 542.967 223.486 543.5 219.753 543.5C216.02 543.5 212.286 543.1 208.553 542.3C209.353 535.9 209.753 529.1 209.753 521.9V491.9C209.753 486.833 208.02 482.967 204.553 480.3C201.086 477.367 196.553 475.9 190.953 475.9C185.353 475.9 180.82 477.367 177.353 480.3C174.153 482.967 172.553 486.833 172.553 491.9V676.7C172.553 686.3 177.353 691.1 186.953 691.1C196.82 691.1 204.42 686.433 209.753 677.1V617.1ZM332.213 687.1C341.813 687.1 349.013 686.433 353.813 685.1C355.946 692.567 357.013 699.9 357.013 707.1C357.013 711.367 355.146 713.5 351.413 713.5H272.613V491.1L271.012 453.5C280.079 452.167 289.013 451.5 297.813 451.5C302.079 451.5 304.213 453.767 304.213 458.3V687.1H332.213Z" fill="black"/>
<path d="M593 479.4C585.8 479.4 578.6 483 571.4 490.2V675.4L573 713C563.933 714.333 555 715 546.2 715C541.933 715 539.8 712.733 539.8 708.2V491.8C539.8 485.933 538.733 481.8 536.6 479.4C534.467 476.733 530.6 475.4 525 475.4C524.733 468.467 526.6 463 530.6 459C534.6 455 541 453 549.8 453C558.6 453 564.867 457.4 568.6 466.2C579 457.4 589.667 453 600.6 453C627 453 640.2 466.067 640.2 492.2V679C640.2 684.6 641.267 688.6 643.4 691C645.8 693.133 649.8 694.2 655.4 694.2C655.4 709.4 646.867 717 629.8 717C615.667 717 608.6 707.8 608.6 689.4V494.6C608.6 484.467 603.4 479.4 593 479.4ZM726.994 479.4C719.794 479.4 712.594 483 705.394 490.2V686.6H723.794C729.394 686.6 733.927 685.267 737.394 682.6C740.86 679.667 742.594 675.667 742.594 670.6V494.6C742.594 484.467 737.394 479.4 726.994 479.4ZM734.594 453C760.994 453 774.194 466.067 774.194 492.2V670.6C774.194 683.933 769.527 694.333 760.194 701.8C751.127 709.267 738.727 713 722.994 713H673.794V491.8C673.794 485.933 672.727 481.8 670.594 479.4C668.46 476.733 664.594 475.4 658.994 475.4C658.727 468.467 660.594 463 664.594 459C668.594 455 674.994 453 683.794 453C692.86 453 699.127 457.4 702.594 466.2C712.994 457.4 723.66 453 734.594 453ZM801.853 708.2V491.4C801.853 478.067 806.386 467.667 815.453 460.2C824.52 452.733 836.92 449 852.653 449C868.386 449 880.52 452.467 889.053 459.4C897.853 466.333 902.253 476.467 902.253 489.8V679C902.253 684.6 903.32 688.6 905.453 691C907.853 693.133 911.853 694.2 917.453 694.2C917.453 709.4 908.92 717 891.853 717C877.72 717 870.653 707.8 870.653 689.4V613H833.453V675.4L835.053 713C825.986 714.333 817.053 715 808.253 715C803.986 715 801.853 712.733 801.853 708.2ZM833.453 491.4V586.6H870.653V491.4C870.653 486.333 868.92 482.467 865.453 479.8C861.986 476.867 857.453 475.4 851.853 475.4C846.253 475.4 841.72 476.867 838.253 479.8C835.053 482.467 833.453 486.333 833.453 491.4Z" fill="black"/>
<path d="M154.625 750.375C165.958 750.375 174.667 753.833 180.75 760.75C186.917 767.583 190 777.333 190 790C190 803.833 186.667 814.5 180 822C173.333 829.5 163.917 833.25 151.75 833.25C140.5 833.25 131.792 829.75 125.625 822.75C119.542 815.667 116.5 805.667 116.5 792.75C116.5 779.167 119.792 768.708 126.375 761.375C133.042 754.042 142.458 750.375 154.625 750.375ZM153.125 764C146.458 764 141.625 766.083 138.625 770.25C135.625 774.417 134.125 781.208 134.125 790.625C134.125 801.375 135.583 809.042 138.5 813.625C141.5 818.208 146.417 820.5 153.25 820.5C159.917 820.5 164.75 818.417 167.75 814.25C170.75 810 172.25 803.083 172.25 793.5C172.25 782.917 170.75 775.375 167.75 770.875C164.833 766.292 159.958 764 153.125 764ZM245.072 750.5C253.822 750.5 261.697 752.125 268.697 755.375L265.072 770.625L263.447 770.875C259.364 768.542 255.697 766.875 252.447 765.875C249.281 764.792 245.864 764.25 242.197 764.25C234.781 764.25 229.364 766.458 225.947 770.875C222.531 775.292 220.822 782.542 220.822 792.625C220.822 799.292 221.531 804.583 222.947 808.5C224.447 812.417 226.739 815.292 229.822 817.125C232.906 818.875 236.989 819.75 242.072 819.75C243.822 819.75 245.447 819.625 246.947 819.375C248.531 819.125 250.447 818.667 252.697 818L252.947 811.125L252.697 798.375L268.322 797.25L267.947 808.5L268.322 828.125C258.322 831.458 249.114 833.125 240.697 833.125C228.197 833.125 218.781 829.708 212.447 822.875C206.197 816.042 203.072 806.25 203.072 793.5C203.072 779.583 206.697 768.958 213.947 761.625C221.281 754.208 231.656 750.5 245.072 750.5ZM334.404 819.375L333.279 832H289.779L290.654 808L289.779 751.5H307.029L306.029 806.5L306.404 818H333.404L334.404 819.375ZM366.856 806.5L367.606 832H350.606L351.481 808L350.606 751.5H367.856L366.856 806.5ZM460.222 807.125L460.847 832H442.597L409.722 777.5H408.722L408.597 804.25L409.097 832H393.722L394.597 808.25L393.847 751.5H411.972L444.847 806H445.972L445.597 752.25L461.222 751.25L460.222 807.125ZM508.511 805.5L508.761 816.875C508.761 821.625 507.969 825.667 506.386 829C504.802 832.333 502.219 835.292 498.636 837.875C495.136 840.458 490.302 842.917 484.136 845.25L479.011 836.25V834.75C484.177 832.083 487.802 829.458 489.886 826.875C492.052 824.208 493.136 820.792 493.136 816.625V807.125L492.386 764L479.136 764.375L477.886 763.125L478.761 751.5H509.386L508.511 805.5ZM565.782 750.375C577.116 750.375 585.824 753.833 591.907 760.75C598.074 767.583 601.157 777.333 601.157 790C601.157 803.833 597.824 814.5 591.157 822C584.491 829.5 575.074 833.25 562.907 833.25C551.657 833.25 542.949 829.75 536.782 822.75C530.699 815.667 527.657 805.667 527.657 792.75C527.657 779.167 530.949 768.708 537.532 761.375C544.199 754.042 553.616 750.375 565.782 750.375ZM564.282 764C557.616 764 552.782 766.083 549.782 770.25C546.782 774.417 545.282 781.208 545.282 790.625C545.282 801.375 546.741 809.042 549.657 813.625C552.657 818.208 557.574 820.5 564.407 820.5C571.074 820.5 575.907 818.417 578.907 814.25C581.907 810 583.407 803.083 583.407 793.5C583.407 782.917 581.907 775.375 578.907 770.875C575.991 766.292 571.116 764 564.282 764ZM681.654 832H664.404L662.404 821.5L660.279 814L644.529 813.625L630.654 814L628.529 820.625L626.404 832H609.654L636.904 751.5H657.029L681.654 832ZM656.654 800.875L647.154 767.375H646.029L635.029 800.875L645.779 801.125L656.654 800.875ZM741.855 800C748.355 810.333 754.814 819.667 761.23 828L760.98 829.875C755.564 831.792 750.022 832.917 744.355 833.25L742.605 831.875C736.605 821.542 731.73 812.542 727.98 804.875H715.855V806.5L716.605 832H699.605L700.48 808L699.605 751.5L730.48 751.375C738.897 751.375 745.397 753.458 749.98 757.625C754.564 761.708 756.855 767.583 756.855 775.25C756.855 780.417 755.522 785.167 752.855 789.5C750.272 793.75 746.605 797.25 741.855 800ZM716.105 791.75L728.48 792.25C735.564 789.833 739.105 784.708 739.105 776.875C739.105 772.625 737.939 769.458 735.605 767.375C733.355 765.208 729.855 764.042 725.105 763.875L716.605 764.375L716.105 791.75ZM842.836 832H825.586L823.586 821.5L821.461 814L805.711 813.625L791.836 814L789.711 820.625L787.586 832H770.836L798.086 751.5H818.211L842.836 832ZM817.836 800.875L808.336 767.375H807.211L796.211 800.875L806.961 801.125L817.836 800.875ZM826.211 728.75C824.711 733 822.336 736.25 819.086 738.5C815.836 740.75 811.878 741.875 807.211 741.875C802.711 741.875 798.836 740.75 795.586 738.5C792.419 736.25 790.128 733 788.711 728.75L792.586 723.375H794.961C796.044 725.542 797.669 727.25 799.836 728.5C802.086 729.75 804.711 730.375 807.711 730.375C810.628 730.375 813.128 729.792 815.211 728.625C817.378 727.375 819.003 725.625 820.086 723.375H822.461L826.211 728.75Z" fill="black"/>
<g filter="url(#filter0_d_55_14)">
<path d="M370.076 474.677C370.318 461.992 380.024 451.499 392.652 450.271L414.19 448.176C415.395 448.059 416.607 448.029 417.817 448.088L484.558 451.315C497.531 451.943 507.862 462.399 508.334 475.379L511 548.788V583.696L508.128 686.569C507.771 699.358 497.816 709.814 485.06 710.797L456.5 713L393.886 710.136C380.729 709.535 370.296 698.829 370.033 685.661L368 583.696L370.076 474.677Z" fill="#F0C100"/>
</g>
<circle cx="439" cy="493.5" r="13.5" fill="black"/>
<rect x="387.5" y="520" width="104" height="170" rx="20" fill="black"/>
<path d="M441.5 523H469.5C480.546 523 489.5 531.954 489.5 543V567L484.355 548.734C481.364 538.118 472.79 529.999 462.027 527.592L441.5 523Z" fill="white" fill-opacity="0.19"/>
<path d="M452.5 455H480.5C491.546 455 500.5 463.954 500.5 475V499L495.355 480.734C492.364 470.118 483.79 461.999 473.027 459.592L452.5 455Z" fill="black" fill-opacity="0.19"/>
<path d="M395.036 450.5H483.514C495.578 450.5 505.496 460.015 505.995 472.068L508.5 532.556V581.451L505.618 686.452C505.302 697.955 496.358 707.366 484.886 708.266L456.459 710.495L393.991 707.59C382.154 707.039 372.774 697.403 372.541 685.556L370.5 581.497L372.54 472.579C372.77 460.319 382.774 450.5 395.036 450.5Z" stroke="black" stroke-width="5"/>
<path d="M433.85 395.5H450.141V439.448C450.141 442.217 451.289 444.862 453.312 446.753L456.25 449.5L428.25 448.462L430.257 446.787C432.534 444.887 433.85 442.074 433.85 439.109V395.5Z" fill="#111111"/>
<path d="M628.504 227.663L627.997 228.341C598.602 267.641 580.95 314.468 577.087 363.393C577.037 364.03 576.53 364.536 575.892 364.585L567.019 365.263C522.169 368.691 478.978 384.2 442.158 410.038C441.767 410.313 441.242 410.303 440.862 410.014C407.018 384.228 366.409 368.837 323.977 365.713L308.577 364.579C307.96 364.534 307.471 364.04 307.433 363.422L307.004 356.507C304.075 309.358 286.44 264.313 256.578 227.709C256.241 227.295 256.24 226.701 256.574 226.286C284.333 191.748 302.753 150.515 309.892 106.784L311 100C359.058 90.5191 403.549 67.9041 439.531 34.6662L442.631 31.8027C443.117 31.3537 443.87 31.3669 444.34 31.8326C479.627 66.7987 524.627 90.3261 573.478 99.3494L576.121 99.8376C576.642 99.9339 577.037 100.362 577.092 100.889L578.285 112.445C582.651 154.743 600.199 194.599 628.45 226.381C628.77 226.741 628.793 227.277 628.504 227.663Z" fill="#F0C100"/>
<path d="M449 392.438V292.207C449 291.521 449.946 291.337 450.203 291.973C455.039 303.919 457.996 316.542 458.969 329.393L460 343V372.715C460 373.322 460.622 373.732 461.18 373.491C477.295 366.539 494.394 362.139 511.863 360.449L516.5 360H527.265C529.125 360 529.338 362.71 527.5 363C508.87 367.657 490.692 373.964 473.18 381.844L469.5 383.5L452.041 394.146C450.708 394.958 449 393.999 449 392.438Z" fill="black" fill-opacity="0.12"/>
<path d="M614.122 218.462L502.225 213.639C501.513 213.608 501.357 212.622 502.025 212.374C516.976 206.807 532.821 204.025 548.774 204.165L557.735 204.244L581.05 206.216C584.631 206.519 587.353 203.056 586.213 199.647L579.813 180.52L578.746 176.885C573.608 159.385 571 141.24 571 123.001C571 121.848 572.664 121.681 572.894 122.811L577 143L586 169.5L588.628 175.348C595.444 190.518 604.119 204.782 614.454 217.812C614.668 218.081 614.466 218.477 614.122 218.462Z" fill="black" fill-opacity="0.12"/>
<path d="M890.69 392.218L899 395.115L896.109 407.912C894.461 415.208 890.837 421.91 885.633 427.283L884.07 428.898C880.548 432.534 876.203 435.27 871.402 436.874C868.179 437.951 864.803 438.5 861.405 438.5H854.812H835.613C830.16 438.5 824.789 437.163 819.972 434.607C814.737 431.83 810.336 427.708 807.222 422.666L805.555 419.967C802.065 414.315 799.866 407.962 799.118 401.362L798.647 397.21C798.302 394.166 800.683 391.5 803.746 391.5H807.324C808.619 391.5 809.91 391.639 811.176 391.915L812.734 392.254C817.102 393.206 820.804 396.086 822.799 400.087L826.105 406.051C826.902 407.489 827.921 408.792 829.124 409.912C832.014 412.601 835.815 414.096 839.763 414.096H857.783C860.272 414.096 862.72 413.47 864.904 412.277C865.988 411.684 866.993 410.959 867.897 410.118L869.946 408.21C871.841 406.447 873.191 404.177 873.837 401.671L873.964 401.176C875.43 395.481 880.566 391.5 886.447 391.5C887.892 391.5 889.326 391.743 890.69 392.218Z" fill="black"/>
<path d="M577.269 321.391L573.275 343.257C572.969 344.932 570.843 345.483 569.762 344.167L530.5 296.372L493.25 257.623C492.043 256.366 493.659 254.434 495.109 255.4C512.306 266.854 528.237 280.105 542.632 294.929L544.034 296.372L562.881 318.97C563.286 319.456 564.073 319.255 564.196 318.635L565.907 310.034C568.304 297.982 572.854 286.462 579.339 276.024C584.092 268.375 589.835 261.387 596.419 255.242L609.886 242.673C610.915 241.713 612.474 242.993 611.733 244.189L601 261.5L599.874 263.854C590.97 282.466 583.415 301.695 577.269 321.391Z" fill="black" fill-opacity="0.12"/>
<path d="M628.503 227.663L627.996 228.341C598.601 267.641 580.949 314.468 577.086 363.393C577.036 364.03 576.529 364.536 575.891 364.585L567.018 365.263C522.168 368.691 478.977 384.2 442.157 410.038C441.766 410.313 441.241 410.303 440.861 410.014C407.017 384.228 366.408 368.837 323.976 365.713L308.576 364.579C307.959 364.534 307.47 364.04 307.432 363.422L307.003 356.507C304.074 309.358 286.439 264.313 256.577 227.709C256.24 227.295 256.239 226.701 256.573 226.286C284.332 191.748 302.752 150.515 309.891 106.784L310.999 100C359.057 90.5191 403.548 67.9041 439.53 34.6662L442.63 31.8027C443.116 31.3537 443.869 31.3669 444.339 31.8326C479.626 66.7987 524.626 90.3261 573.477 99.3494L576.12 99.8376C576.641 99.9339 577.036 100.362 577.091 100.889L578.284 112.445C582.65 154.743 600.198 194.599 628.449 226.381C628.769 226.741 628.792 227.277 628.503 227.663Z" stroke="#353330" stroke-width="5"/>
<path d="M575.998 101L512.498 151L452.498 205.5" stroke="#353330" stroke-width="5"/>
<path d="M443.498 34.5V127V202" stroke="#353330" stroke-width="5"/>
<path d="M626.749 226.516L543.498 222L455.998 217.5M576.471 364.167L455.998 233.5M441.497 238C439.781 279.821 442.929 313.374 441.498 363L441.498 409" stroke="#353330" stroke-width="5"/>
<path d="M310.827 362L427.999 235.5M258.498 227L363.498 218.5L423.498 218.5M310.827 97.2842L428 206" stroke="#353330" stroke-width="5"/>
<ellipse cx="442.498" cy="220.5" rx="22.5" ry="21" fill="black"/>
<path d="M18 788.5C18 785.462 20.4624 783 23.5 783H72.5C75.5376 783 78 785.462 78 788.5C78 791.538 75.5376 794 72.5 794H23.5C20.4624 794 18 791.538 18 788.5Z" fill="#F0C100"/>
<path d="M859 788.5C859 785.462 861.462 783 864.5 783H913.5C916.538 783 919 785.462 919 788.5C919 791.538 916.538 794 913.5 794H864.5C861.462 794 859 791.538 859 788.5Z" fill="#F0C100"/>
<defs>
<filter id="filter0_d_55_14" x="364" y="448.059" width="151" height="272.941" filterUnits="userSpaceOnUse" color-interpolation-filters="sRGB">
<feFlood flood-opacity="0" result="BackgroundImageFix"/>
<feColorMatrix in="SourceAlpha" type="matrix" values="0 0 0 0 0 0 0 0 0 0 0 0 0 0 0 0 0 0 127 0" result="hardAlpha"/>
<feOffset dy="4"/>
<feGaussianBlur stdDeviation="2"/>
<feComposite in2="hardAlpha" operator="out"/>
<feColorMatrix type="matrix" values="0 0 0 0 0 0 0 0 0 0 0 0 0 0 0 0 0 0 0.25 0"/>
<feBlend mode="normal" in2="BackgroundImageFix" result="effect1_dropShadow_55_14"/>
<feBlend mode="normal" in="SourceGraphic" in2="effect1_dropShadow_55_14" result="shape"/>
</filter>
</defs>
</svg>
